<?xml version="1.0" ?><svg style="enable-background:new 0 0 48 48;" version="1.1" viewBox="0 0 48 48" xml:space="preserve" xmlns="http://www.w3.org/2000/svg" xmlns:xlink="http://www.w3.org/1999/xlink"><g id="Icons"><g><path d="M20.66583,26.58841l-0.09045,1.13033l-4.98433,1.45798    c-2.68994,0.79108-4.82599,2.67866-5.74147,5.09734L8.51589,37.8003c0,0,14.83987,6.11456,30.96821,0.02267l-1.33369-3.52635    c-0.91548-2.41869-3.04025-4.30615-5.74147-5.09734l-4.98433-1.45798l-0.09045-1.22068" style="fill:#1D97FF;"/><path d="M27.37489,27.73835c0.00006,3.59856-6.74973,3.56354-6.74979-0.03028v-1.49248h6.74979V27.73835z" style="fill:#DDBEA8;"/><path d="M29.30091,24.3137c4.86313-0.86046,3.81303-9.18364,3.81303-9.18364    c-0.45301-4.33648-4.15409-7.61159-8.86057-7.65415c-0.07406-0.00066-0.14824-0.00066-0.2223-0.00011    c-4.71861,0.03842-8.7067,3.33406-9.14502,7.68321c0,0-1.53662,7.99617,3.69544,9.1547" style="fill:#FFE291;"/><path d="M16.94847,18.2366l0.99678,1.36806c0,0,0.90782-2.71196,4.84525-2.31525    c3.58935,0.3617,7.51656-3.48336,7.51656-3.48336l-0.28338,1.91109c-0.09822,0.66264-0.1476,1.33177-0.1476,2.00176v0.88505    l1.07457-0.37256c0.82865,0.15505,0.63657,1.12073,0.39469,2.17117c-0.24199,1.05052-0.45141,2.15308-1.28006,1.99803v0.02086    c-0.76597,3.01131-3.23882,5.21608-6.17106,5.21608c-2.87903,0-5.31091-2.30927-6.12328-5.23693    c-0.82865,0.15504-1.03818-0.94751-1.28005-1.99803c-0.24199-1.05044-0.4247-2.05241,0.40395-2.20745L16.94847,18.2366z" style="fill:#F9D9C0;"/><path d="    M20.66583,26.58841l-0.09045,1.13033l-4.98433,1.45798c-2.68994,0.79108-4.82599,2.67866-5.74147,5.09734L8.51589,37.8003    c0,0,14.83987,6.11456,30.96821,0.02267l-1.33369-3.52635c-0.91548-2.41869-3.04025-4.30615-5.74147-5.09734l-4.98433-1.45798    l-0.09045-1.22068" style="fill:none;stroke:#303030;stroke-width:0.8;stroke-linecap:round;stroke-linejoin:round;stroke-miterlimit:10;"/><path d="    M16.94847,18.2366l0.99678,1.36806c0,0,0.90782-2.71196,4.84525-2.31525c3.58935,0.3617,7.51656-3.48336,7.51656-3.48336    l-0.28338,1.91109c-0.09822,0.66264-0.1476,1.33177-0.1476,2.00176v0.88505l1.07457-0.37256    c0.82865,0.15505,0.63657,1.12073,0.39469,2.17117c-0.24199,1.05052-0.45141,2.15308-1.28006,1.99803v0.02086    c-0.76597,3.01131-3.23882,5.21608-6.17106,5.21608c-2.87903,0-5.31091-2.30927-6.12328-5.23693    c-0.82865,0.15504-1.03818-0.94751-1.28005-1.99803c-0.24199-1.05044-0.4247-2.05241,0.40395-2.20745L16.94847,18.2366z" style="fill:none;stroke:#303030;stroke-width:0.8;stroke-linecap:round;stroke-linejoin:round;stroke-miterlimit:10;"/><path d="    M29.30091,24.3137c4.86313-0.86046,3.81303-9.18364,3.81303-9.18364c-0.45301-4.33648-4.15409-7.61159-8.86057-7.65415    c-0.07406-0.00066-0.14824-0.00066-0.2223-0.00011c-4.71861,0.03842-8.7067,3.33406-9.14502,7.68321    c0,0-1.53662,7.99617,3.69544,9.1547" style="fill:none;stroke:#303030;stroke-width:0.8;stroke-linecap:round;stroke-linejoin:round;stroke-miterlimit:10;"/><path d="    M20.57538,27.71874c0.00012,3.34573,6.84936,3.38496,6.84924,0.02256" style="fill:none;stroke:#303030;stroke-width:0.8;stroke-linecap:round;stroke-linejoin:round;stroke-miterlimit:10;"/></g></g></svg>