<?xml version="1.0" standalone="no"?>
<!DOCTYPE svg PUBLIC "-//W3C//DTD SVG 20010904//EN"
 "http://www.w3.org/TR/2001/REC-SVG-20010904/DTD/svg10.dtd">
<svg version="1.0" xmlns="http://www.w3.org/2000/svg"
 width="700.000000pt" height="700.000000pt" viewBox="0 0 700.000000 700.000000"
 preserveAspectRatio="xMidYMid meet">
<metadata>
Created by potrace 1.11, written by Peter Selinger 2001-2013
</metadata>
<g transform="translate(0.000000,700.000000) scale(0.100000,-0.100000)"
fill="#000000" stroke="none">
<path d="M3248 6775 c-2 -2 -30 -6 -63 -9 -874 -82 -1687 -521 -2237 -1206
-279 -347 -455 -682 -597 -1135 -28 -89 -79 -320 -96 -440 -4 -22 -8 -50 -10
-61 -27 -165 -27 -665 -1 -834 2 -14 7 -47 11 -75 29 -218 131 -590 204 -750
5 -11 28 -63 51 -115 68 -155 164 -327 273 -490 28 -41 55 -79 59 -85 5 -5 36
-46 70 -90 469 -611 1162 -1043 1920 -1199 242 -50 329 -58 623 -62 292 -3
379 3 580 37 688 116 1313 439 1795 929 128 129 152 157 251 285 229 295 399
607 521 955 17 47 32 92 34 100 2 8 14 55 28 103 24 85 59 242 72 322 3 21 7
46 9 56 2 10 7 49 10 86 4 37 11 91 15 118 8 52 6 544 -3 605 -3 19 -8 60 -11
90 -7 50 -29 188 -41 250 -75 387 -256 817 -488 1165 -33 50 -70 102 -81 117
-12 14 -32 41 -46 59 -106 141 -300 348 -435 464 -39 33 -72 63 -75 66 -14 15
-186 143 -265 196 -420 281 -932 473 -1410 528 -27 3 -70 8 -95 12 -47 6 -566
13 -572 8z"/>
</g>
</svg>
